<svg t="1611022250114" class="icon" viewBox="0 0 1024 1024" version="1.1" xmlns="http://www.w3.org/2000/svg" p-id="21002" width="200" height="200"><path d="M910.9 760.9H111.6v-511c0-18.6 15.1-33.7 33.7-33.7h732c18.6 0 33.7 15.1 33.7 33.7v511z" fill="#37474F" p-id="21003"></path><path d="M837 743.3H185.5c-9.3 0-16.8-7.5-16.8-16.8V285.8c0-9.3 7.5-16.8 16.8-16.8H837c9.3 0 16.8 7.5 16.8 16.8v440.7c0 9.3-7.6 16.8-16.8 16.8z" fill="#FFFFFF" p-id="21004"></path><path d="M591.1 427.1m-17.6 0a17.6 17.6 0 1 0 35.2 0 17.6 17.6 0 1 0-35.2 0Z" fill="#FFC107" p-id="21005"></path><path d="M591.1 497.4m-17.6 0a17.6 17.6 0 1 0 35.2 0 17.6 17.6 0 1 0-35.2 0Z" fill="#4CAF50" p-id="21006"></path><path d="M591.1 567.6m-17.6 0a17.6 17.6 0 1 0 35.2 0 17.6 17.6 0 1 0-35.2 0Z" fill="#2196F3" p-id="21007"></path><path d="M723.2 435.9h-79.8c-4.6 0-8.4-3.8-8.4-8.4v-0.7c0-4.6 3.8-8.4 8.4-8.4h79.8c4.6 0 8.4 3.8 8.4 8.4v0.7c0 4.6-3.8 8.4-8.4 8.4zM723.2 506.1h-79.8c-4.6 0-8.4-3.8-8.4-8.4v-0.7c0-4.6 3.8-8.4 8.4-8.4h79.8c4.6 0 8.4 3.8 8.4 8.4v0.7c0 4.7-3.8 8.4-8.4 8.4zM723.2 576.4h-79.8c-4.6 0-8.4-3.8-8.4-8.4v-0.7c0-4.6 3.8-8.4 8.4-8.4h79.8c4.6 0 8.4 3.8 8.4 8.4v0.7c0 4.6-3.8 8.4-8.4 8.4z" fill="#C1C1C1" p-id="21008"></path><path d="M261.1 567l132.5 176.3h307.7L464.6 428.4z" fill="#EEEEEE" p-id="21009"></path><path d="M263.6 570.2c-13.5-18.4-21.6-40.1-23.5-62.7 1.9 23.3 10.4 44.9 23.5 62.7zM263.8 570.4c22.4 30.3 58.4 49.9 98.9 49.9 30 0 57.5-10.7 78.8-28.6l-78.8-94.4-98.9 73.1zM360.6 374.4h-0.2l2.2 122.9-2-122.9z" fill="#2196F3" p-id="21010"></path><path d="M441.5 591.7c0.1-0.1 0.3-0.2 0.4-0.3-0.2 0.1-0.3 0.2-0.4 0.3z" fill="#4CAF50" p-id="21011"></path><path d="M485.6 492.9v-0.8c-0.1-1.4-0.1-2.8-0.3-4.2-0.1-0.8-0.1-1.5-0.2-2.3-0.1-0.6-0.1-1.2-0.2-1.8-0.1-0.9-0.2-1.9-0.3-2.8 0-0.4-0.1-0.7-0.2-1.1-0.2-1.1-0.3-2.2-0.5-3.3 0-0.1 0-0.2-0.1-0.3-2.7-15.4-8.2-30.1-16.4-43.4l-104.7 64.5 78.8 94.4c0.1-0.1 0.3-0.2 0.4-0.3 0.6-0.5 1.3-1.1 1.9-1.6 0.3-0.2 0.5-0.5 0.8-0.7 0.5-0.5 1.1-1 1.6-1.4 0.3-0.3 0.6-0.5 0.9-0.8 0.5-0.5 1-0.9 1.5-1.4 0.3-0.3 0.6-0.5 0.8-0.8 0.6-0.5 1.1-1.1 1.6-1.7l0.6-0.6c1.5-1.6 3-3.2 4.4-4.9l0.1-0.1c0.7-0.8 1.4-1.6 2-2.4l0.1-0.1c15.5-19.1 25-42.5 27-67.3 0.1-1 0.2-2.1 0.2-3.1v-0.4c0.1-0.9 0.1-1.9 0.1-2.8v-0.6-3.3c0.1-1.6 0.1-3.1 0.1-4.6z" fill="#4CAF50" p-id="21012"></path><path d="M455.9 577.5c-1.4 1.7-2.9 3.3-4.4 4.9 1.5-1.6 3-3.2 4.4-4.9z" fill="#4CAF50" p-id="21013"></path><path d="M360.5 374.4h-0.5 0.5zM360.5 374.4h-0.5c-0.6 0-1.2 0-1.8 0.1h-1.3c-0.7 0-1.5 0.1-2.2 0.1h-0.7c-63.6 4.5-114.4 58.2-114.4 122.7 0 1.5 0 3 0.1 4.5v0.8c0.1 1.4 0.2 2.9 0.3 4.3v0.6c1.9 22.6 10 44.4 23.5 62.7l0.2 0.2 98.9-73.1-2.1-122.9z" fill="#F44336" p-id="21014"></path><path d="M263.8 570.4c0-0.1-0.1-0.1-0.2-0.2 0.1 0.1 0.1 0.2 0.2 0.2z" fill="#F44336" p-id="21015"></path><path d="M360.6 374.4h2-2zM467.4 432.9c0-0.1 0-0.1 0 0 0-0.1 0-0.1 0 0zM462.1 424.9c-0.5-0.6-0.9-1.3-1.4-1.9-0.8-1-1.5-2-2.3-2.9-0.1-0.1-0.1-0.2-0.2-0.3-1.6-2-3.2-3.9-5-5.7l-0.3-0.3c-0.8-0.8-1.6-1.7-2.4-2.5l-0.2-0.2c-21-21.3-49.2-34.4-79.3-36.4h-0.7c-1-0.1-2-0.1-3-0.1h-0.9c-1.2 0-2.5-0.1-3.7-0.1h-2l2 122.9 99.4-72.5z" fill="#FFC107" p-id="21016"></path><path d="M462.1 424.9l-99.4 72.4 104.7-64.5c-0.7-1.2-1.5-2.3-2.2-3.5 0-0.1-0.1-0.1-0.1-0.2-0.8-1.3-1.7-2.5-2.6-3.7-0.2-0.1-0.3-0.3-0.4-0.5z" fill="#FFC107" p-id="21017"></path><path d="M947.7 804.8H76.3c-31 0-56.2-25.2-56.2-56.2v-6c0-9.3 7.5-16.8 16.8-16.8H987c9.3 0 16.8 7.5 16.8 16.8v6c0.1 31-25.1 56.2-56.1 56.2z" fill="#B0BEC5" p-id="21018"></path><path d="M573 760.9H451c-5.8 0-11.4-3.5-15.1-9.4l-16.1-25.7h184.5l-16.1 25.7c-3.8 5.9-9.3 9.4-15.2 9.4z" fill="#90A4AE" p-id="21019"></path></svg>